<?xml version="1.0" encoding="UTF-8"?><svg xmlns="http://www.w3.org/2000/svg" xmlns:xlink="http://www.w3.org/1999/xlink" contentScriptType="text/ecmascript" zoomAndPan="magnify" contentStyleType="text/css" style="stroke-opacity: 1.0;" version="1.0" width="48" fill="none" preserveAspectRatio="xMidYMid meet" viewBox="0 0 48 48" height="48" opacity="1.0">
<rect x="16" y="12" fill-opacity="1.0" fill="#22C55E" width="28" stroke-linejoin="round" rx="3" height="18" stroke="#22C55E" stroke-width="2.0"/>
<path d="M24 18V24" stroke-width="2.0" stroke-linecap="round" stroke="white"/>
<path d="M36 18V24" stroke-width="2.0" stroke-linecap="round" stroke="white"/>
<path d="M36 12V6H24V12" stroke-width="2.0" stroke-linejoin="round" stroke-linecap="round" stroke="#22C55E"/>
<path d="M44 36H12C10.8954 36 10 35.1046 10 34V11C10 9.89543 9.10457 9 8 9H4" stroke-width="2.0" stroke-linejoin="round" stroke-linecap="round" stroke="#22C55E"/>
<path stroke-linecap="round" fill-opacity="1.0" fill="#22C55E" stroke-linejoin="round" d="M19 42C17.3431 42 16 40.6569 16 39V36H22V39C22 40.6569 20.6569 42 19 42Z" stroke="#22C55E" stroke-width="2.0"/>
<path stroke-linecap="round" fill-opacity="1.0" fill="#22C55E" stroke-linejoin="round" d="M37 42C35.3431 42 34 40.6569 34 39V36H40V39C40 40.6569 38.6569 42 37 42Z" stroke="#22C55E" stroke-width="2.0"/>
</svg>