<?xml version="1.0" encoding="UTF-8"?><svg xmlns="http://www.w3.org/2000/svg" xmlns:xlink="http://www.w3.org/1999/xlink" contentScriptType="text/ecmascript" zoomAndPan="magnify" contentStyleType="text/css" style="stroke-opacity: 1.0;" version="1.0" width="48" fill="none" preserveAspectRatio="xMidYMid meet" viewBox="0 0 48 48" height="48" opacity="1.0">
<path stroke-linecap="round" fill-opacity="1.0" fill="#EF4444" stroke-linejoin="round" d="M15 8C8.92487 8 4 12.9249 4 19C4 30 17 40 24 42.3262C31 40 44 30 44 19C44 12.9249 39.0751 8 33 8C29.2797 8 25.9907 9.8469 24 12.6738C22.0093 9.8469 18.7203 8 15 8Z" stroke="#EF4444" stroke-width="2.0"/>
<path fill="#EF4444" clip-rule="evenodd" fill-opacity="1.0" d="M28 20L20 28L28 20Z" fill-rule="evenodd"/>
<path d="M28 20L20 28" stroke-width="2.0" stroke-linejoin="round" stroke-linecap="round" stroke="white"/>
<path fill="#EF4444" clip-rule="evenodd" fill-opacity="1.0" d="M20 20.0001L28 28L20 20.0001Z" fill-rule="evenodd"/>
<path d="M20 20.0001L28 28" stroke-width="2.0" stroke-linejoin="round" stroke-linecap="round" stroke="white"/>
</svg>